<?xml version="1.0" encoding="UTF-8" standalone="no"?>
<!-- Created with Inkscape (http://www.inkscape.org/) -->

<svg
   width="210mm"
   height="210mm"
   viewBox="0 0 210 210"
   version="1.1"
   id="svg1"
   inkscape:version="1.4.2 (f4327f4, 2025-05-13)"
   sodipodi:docname="icoTemplateResolver.svg"
   xmlns:inkscape="http://www.inkscape.org/namespaces/inkscape"
   xmlns:sodipodi="http://sodipodi.sourceforge.net/DTD/sodipodi-0.dtd"
   xmlns="http://www.w3.org/2000/svg"
   xmlns:svg="http://www.w3.org/2000/svg">
  <sodipodi:namedview
     id="namedview1"
     pagecolor="#ffffff"
     bordercolor="#000000"
     borderopacity="0.25"
     inkscape:showpageshadow="2"
     inkscape:pageopacity="0.0"
     inkscape:pagecheckerboard="0"
     inkscape:deskcolor="#d1d1d1"
     inkscape:document-units="mm"
     inkscape:zoom="1.0396254"
     inkscape:cx="396.77752"
     inkscape:cy="330.40747"
     inkscape:window-width="2560"
     inkscape:window-height="1369"
     inkscape:window-x="-8"
     inkscape:window-y="-8"
     inkscape:window-maximized="1"
     inkscape:current-layer="svg1" />
  <defs
     id="defs1">
    <marker
       style="overflow:visible"
       id="RoundedArrow"
       refX="0"
       refY="0"
       orient="auto-start-reverse"
       inkscape:stockid="Rounded arrow"
       markerWidth="0.5"
       markerHeight="0.5"
       viewBox="0 0 1 1"
       inkscape:isstock="true"
       inkscape:collect="always"
       preserveAspectRatio="xMidYMid"
       markerUnits="strokeWidth">
      <path
         transform="scale(0.7)"
         d="m -0.21114562,-4.1055728 6.42229122,3.21114561 a 1,1 90 0 1 0,1.78885438 L -0.21114562,4.1055728 A 1.236068,1.236068 31.717474 0 1 -2,3 v -6 a 1.236068,1.236068 148.28253 0 1 1.78885438,-1.1055728 z"
         style="fill:context-stroke;fill-rule:evenodd;stroke:none"
         id="path23" />
    </marker>
    <clipPath
       clipPathUnits="userSpaceOnUse"
       id="clipPath19">
      <path
         id="path19"
         style="fill:#3a9c44;stroke:none;stroke-width:4.99999;stroke-linecap:round;stroke-dasharray:none;stroke-opacity:1"
         inkscape:label="clip"
         d="m 98.316997,14.135571 c -0.23449,-0.0072 -0.470048,-0.0025 -0.7059,0.01499 -25.187347,0.01018 -50.375857,-0.02744 -75.562314,0.06408 -4.066268,0.45059 -7.170423,4.632012 -6.626985,8.649085 0.0065,33.277788 -0.0195,66.556363 0.06046,99.833694 0.369828,4.09798 4.556783,7.28947 8.599992,6.74016 l 40.81508,0.006 V 64.55265 c 0,-2.770002 2.229694,-4.999696 4.999696,-4.999696 h 35.814864 c -0.007,-12.990224 0.0616,-25.982981 -0.0966,-38.970748 -0.50145,-3.513657 -3.78094,-6.338046 -7.298264,-6.446635 z" />
    </clipPath>
  </defs>
  <g
     inkscape:label="Final"
     inkscape:groupmode="layer"
     id="g8"
     transform="translate(46.064267,43.010283)"
     style="display:inline" />
  <path
     d="m 23.069393,16.796908 c -2.77,0 -5.000212,2.230211 -5.000212,5.000211 V 121.7967 c 0,2.77 2.230212,5.00021 5.000212,5.00021 h 41.06416 V 64.807414 c 0,-2.77 2.230212,-5.000212 5.000212,-5.000212 H 103.06916 V 21.797119 c 0,-2.77 -2.22969,-5.000211 -4.999694,-5.000211 z"
     style="display:none;fill:#3a9c44;stroke:#cc8256;stroke-width:5;stroke-linecap:round;stroke-dasharray:none;stroke-opacity:1"
     id="path16"
     inkscape:label="clip" />
  <g
     id="g22"
     transform="matrix(1.2738099,0,0,1.2738099,-0.6944964,-14.094584)"
     style="fill:none">
    <g
       inkscape:label="Template"
       id="layer1"
       style="display:inline;stroke:#ea4b71;stroke-opacity:1;fill:none"
       clip-path="url(#clipPath19)">
      <rect
         style="fill:none;stroke:#ea4b71;stroke-width:5;stroke-linecap:round;stroke-dasharray:5, 10;stroke-dashoffset:0;stroke-opacity:1"
         id="rect1"
         width="85"
         height="110"
         x="18.069408"
         y="16.796915"
         rx="5"
         ry="5"
         clip-path="none" />
      <path
         style="fill:none;stroke:#ea4b71;stroke-width:4.99999;stroke-linecap:round;stroke-dasharray:4.99999, 10;stroke-dashoffset:0;stroke-opacity:1"
         d="M 34.196108,46.318766 H 89.422326"
         id="path1" />
      <path
         style="fill:none;stroke:#ea4b71;stroke-width:4.99999;stroke-linecap:round;stroke-dasharray:4.99999, 10;stroke-dashoffset:0;stroke-opacity:1"
         d="M 34.196108,62.182519 H 89.422326"
         id="path2" />
      <path
         style="fill:none;stroke:#ea4b71;stroke-width:4.99999;stroke-linecap:round;stroke-dasharray:4.99999, 10;stroke-dashoffset:0;stroke-opacity:1"
         d="m 34.196107,78.046272 h 55.22622"
         id="path3" />
      <path
         style="fill:none;stroke:#ea4b71;stroke-width:4.99999;stroke-linecap:round;stroke-dasharray:4.99999, 10;stroke-dashoffset:0;stroke-opacity:1"
         d="m 34.196107,93.910025 h 55.22622"
         id="path4" />
    </g>
    <rect
       style="display:inline;fill:none;stroke:#ea4b71;stroke-width:5;stroke-linecap:round;stroke-dasharray:none;stroke-dashoffset:0;stroke-opacity:1"
       id="rect4"
       width="85"
       height="110"
       x="18.069408"
       y="16.796915"
       rx="5"
       ry="5"
       transform="translate(46.064268,43.010283)" />
    <path
       style="display:inline;fill:none;stroke:#ea4b71;stroke-width:4.99999;stroke-linecap:round;stroke-dasharray:none;stroke-dashoffset:0;stroke-opacity:1"
       d="M 34.196108,46.318766 H 89.422326"
       id="path5"
       transform="translate(46.064268,43.010283)" />
    <path
       style="display:inline;fill:none;stroke:#ea4b71;stroke-width:4.99999;stroke-linecap:round;stroke-dasharray:none;stroke-dashoffset:0;stroke-opacity:1"
       d="M 34.196108,62.182519 H 89.422326"
       id="path6"
       transform="translate(46.064268,43.010283)" />
    <path
       style="display:inline;fill:none;stroke:#ea4b71;stroke-width:4.99999;stroke-linecap:round;stroke-dasharray:none;stroke-dashoffset:0;stroke-opacity:1"
       d="m 34.196107,78.046272 h 55.22622"
       id="path7"
       transform="translate(46.064268,43.010283)" />
    <path
       style="display:inline;fill:none;stroke:#ea4b71;stroke-width:4.99999;stroke-linecap:round;stroke-dasharray:none;stroke-dashoffset:0;stroke-opacity:1"
       d="m 34.196107,93.910025 h 55.22622"
       id="path8"
       transform="translate(46.064268,43.010283)" />
    <path
       style="fill:none;fill-opacity:1;stroke:#ea4b71;stroke-width:4.21702;stroke-linecap:round;stroke-dasharray:none;stroke-dashoffset:0;stroke-opacity:1;marker-end:url(#RoundedArrow)"
       d="m 110.82445,25.567379 22.7524,22.752406"
       id="path21"
       inkscape:transform-center-x="-31.237366"
       inkscape:transform-center-y="-43.076259" />
    <path
       style="fill:none;fill-opacity:1;stroke:#ea4b71;stroke-width:4.21702;stroke-linecap:round;stroke-dasharray:none;stroke-dashoffset:0;stroke-opacity:1;marker-end:url(#RoundedArrow)"
       d="m 28.112368,134.74733 22.7524,22.7524"
       id="path22"
       inkscape:transform-center-x="-31.237366"
       inkscape:transform-center-y="-43.076259" />
  </g>
</svg>
